<?xml version="1.0" encoding="UTF-8" standalone="no"?>
<!-- Created with Inkscape (http://www.inkscape.org/) -->

<svg
   width="201mm"
   height="65mm"
   viewBox="0 0 201 65"
   version="1.1"
   id="svg1"
   xml:space="preserve"
   inkscape:version="1.4 (86a8ad7, 2024-10-11)"
   sodipodi:docname="tenzi blue.svg"
   xmlns:inkscape="http://www.inkscape.org/namespaces/inkscape"
   xmlns:sodipodi="http://sodipodi.sourceforge.net/DTD/sodipodi-0.dtd"
   xmlns:xlink="http://www.w3.org/1999/xlink"
   xmlns="http://www.w3.org/2000/svg"
   xmlns:svg="http://www.w3.org/2000/svg"><sodipodi:namedview
     id="namedview1"
     pagecolor="#ffffff"
     bordercolor="#111111"
     borderopacity="1"
     inkscape:showpageshadow="0"
     inkscape:pageopacity="0"
     inkscape:pagecheckerboard="1"
     inkscape:deskcolor="#d1d1d1"
     inkscape:document-units="mm"
     inkscape:zoom="1.0267829"
     inkscape:cx="458.22734"
     inkscape:cy="-36.521839"
     inkscape:window-width="1920"
     inkscape:window-height="1017"
     inkscape:window-x="1912"
     inkscape:window-y="-8"
     inkscape:window-maximized="1"
     inkscape:current-layer="layer1" /><defs
     id="defs1"><linearGradient
       id="linearGradient16"
       inkscape:collect="always"><stop
         style="stop-color:#000000;stop-opacity:0.68644071;"
         offset="0"
         id="stop15" /><stop
         style="stop-color:#333344;stop-opacity:0;"
         offset="0.89759034"
         id="stop16" /></linearGradient><linearGradient
       id="linearGradient11"
       inkscape:collect="always"><stop
         style="stop-color:#000000;stop-opacity:0.69491524;"
         offset="0"
         id="stop10" /><stop
         style="stop-color:#333344;stop-opacity:0;"
         offset="1"
         id="stop11" /></linearGradient><linearGradient
       id="linearGradient3"
       inkscape:collect="always"><stop
         style="stop-color:#000000;stop-opacity:0.68644071;"
         offset="0"
         id="stop3" /><stop
         style="stop-color:#333344;stop-opacity:0;"
         offset="1"
         id="stop4" /></linearGradient><color-profile
       name="Agfa-:-Swop-Standard"
       xlink:href="../../../../../../WINDOWS/system32/spool/drivers/color/RSWOP.icm"
       id="color-profile1" /><color-profile
       name="sRGB-IEC61966-2.1"
       xlink:href="../../../../../../WINDOWS/system32/spool/drivers/color/sRGB%20Color%20Space%20Profile.icm"
       id="color-profile2" /><linearGradient
       id="swatch2"
       inkscape:swatch="solid"><stop
         style="stop-color:#1c233c;stop-opacity:1;"
         offset="0"
         id="stop2" /></linearGradient><linearGradient
       id="arc1Gradient-0"
       x1="149.5"
       y1="149.5"
       x2="50.5"
       y2="50.5"
       gradientUnits="userSpaceOnUse"
       gradientTransform="matrix(0,0.89869949,-0.89869949,0,-36.102721,12.157382)"><stop
         offset="0%"
         stop-color="#EC2BA6"
         id="stop1-9" /><stop
         offset="100%"
         stop-color="#F69068"
         id="stop2-4" /></linearGradient><linearGradient
       id="arc2Gradient-8"
       x1="50.5"
       y1="50.5"
       x2="149.5"
       y2="149.5"
       gradientUnits="userSpaceOnUse"
       gradientTransform="matrix(0,0.89869949,-0.89869949,0,-36.102721,12.157382)"><stop
         offset="0%"
         stop-color="#762BB7"
         id="stop3-8" /><stop
         offset="100%"
         stop-color="#2FC2EF"
         id="stop4-2" /></linearGradient><linearGradient
       inkscape:collect="always"
       xlink:href="#swatch2"
       id="linearGradient2"
       x1="-2.8328218"
       y1="92.10894"
       x2="416.86349"
       y2="92.10894"
       gradientUnits="userSpaceOnUse" /><linearGradient
       inkscape:collect="always"
       xlink:href="#linearGradient11"
       id="linearGradient5"
       gradientUnits="userSpaceOnUse"
       x1="-27.169992"
       y1="-18.921135"
       x2="21.284372"
       y2="26.60606"
       gradientTransform="matrix(3.7795276,0,0,3.7795276,65.969434,83.760759)" /><linearGradient
       inkscape:collect="always"
       xlink:href="#linearGradient3"
       id="linearGradient6"
       gradientUnits="userSpaceOnUse"
       gradientTransform="matrix(3.7795276,0,0,3.7795276,233.06248,147.61726)"
       x1="-32.250378"
       y1="-37.501045"
       x2="5.193779"
       y2="-4.243432" /><linearGradient
       inkscape:collect="always"
       xlink:href="#linearGradient3"
       id="linearGradient7"
       gradientUnits="userSpaceOnUse"
       gradientTransform="matrix(3.7795276,0,0,3.7795276,312.8453,207.36522)"
       x1="-46.659107"
       y1="-53.039654"
       x2="-2.5366766"
       y2="-12.746933" /><linearGradient
       inkscape:collect="always"
       xlink:href="#linearGradient3"
       id="linearGradient8"
       gradientUnits="userSpaceOnUse"
       gradientTransform="matrix(3.7795276,0,0,3.7795276,311.02784,193.23495)"
       x1="-31.21965"
       y1="-48.581367"
       x2="21.057957"
       y2="-2.5410306" /><linearGradient
       inkscape:collect="always"
       xlink:href="#linearGradient3"
       id="linearGradient9"
       gradientUnits="userSpaceOnUse"
       gradientTransform="matrix(3.7795276,0,0,3.7795276,28.97537,-41.67961)"
       x1="79.068192"
       y1="13.262281"
       x2="122.32156"
       y2="29.68215" /><linearGradient
       inkscape:collect="always"
       xlink:href="#linearGradient16"
       id="linearGradient12"
       gradientUnits="userSpaceOnUse"
       x1="2.0645993"
       y1="1.6469805"
       x2="49.38686"
       y2="48.166054" /></defs><g
     inkscape:label="Layer 1"
     inkscape:groupmode="layer"
     id="layer1"
     style="display:inline"><g
       inkscape:groupmode="layer"
       id="layer2"
       inkscape:label="combined"
       transform="matrix(0.26458333,0,0,0.26458333,57.148859,-3.1761411)"
       style="display:inline"><path
         style="display:inline;fill:url(#linearGradient5);stroke-width:1.00157;stroke-dasharray:none"
         d="M 23.117139,152.90878 132.19569,258.09166 242.51315,229.99668 39.977494,48.147816 -3.0887291,88.245002 14.412068,102.15302 Z"
         id="path3-9"
         sodipodi:nodetypes="ccccccc"
         transform="translate(2.4409449e-6)" /><path
         style="display:inline;fill:url(#linearGradient12);stroke-width:0.265;stroke-dasharray:none"
         d="M 9.5342283,40.19837 50.734283,77.970866 84.431227,50.453847 40.19837,7.4727738 14.565788,14.34826 Z"
         id="path3"
         sodipodi:nodetypes="cccccc"
         transform="matrix(3.7795276,0,0,3.7795276,-215.99569,12.004313)" /><path
         style="display:inline;fill:url(#linearGradient6);stroke-width:1.00157;stroke-dasharray:none"
         d="M 86.97513,144.69552 198.00151,247.93057 261.57102,204.25294 146.44429,69.882457 81.221486,101.57097 Z"
         id="path3-9-3"
         sodipodi:nodetypes="cccccc"
         transform="translate(2.4409449e-6)" /><path
         style="display:inline;fill:url(#linearGradient7);stroke-width:1.00157;stroke-dasharray:none"
         d="m 182.70582,157.69553 84.73065,81.8089 72.16766,-70.9186 L 255.67288,68.863833 227.43,74.863155 208.81837,64.134579 185.23046,68.309985 Z"
         id="path3-9-3-1"
         sodipodi:nodetypes="cccccccc"
         transform="translate(2.4409449e-6)" /><path
         style="display:inline;fill:url(#linearGradient8);stroke-width:1.00157;stroke-dasharray:none"
         d="m 290.94083,157.20008 72.06975,67.20016 86.7764,-61.17944 -81.43739,-98.699134 c -26.76816,0.539024 -47.94299,4.787227 -73.9102,4.02331 l -4.15021,19.896481 28.45065,22.392543 z"
         id="path3-9-3-1-7"
         sodipodi:nodetypes="cccccccc"
         transform="translate(2.4409449e-6)" /><path
         style="display:inline;fill:url(#linearGradient9);stroke-width:1.00157;stroke-dasharray:none"
         d="m 391.63723,156.9992 71.40976,62.39979 65.39079,-75.97554 -117.39677,-116.732874 -22.64459,23.2315 19.2757,14.842666 -16.68654,23.475841 z"
         id="path3-9-3-1-7-8"
         sodipodi:nodetypes="cccccccc"
         transform="translate(2.4409449e-6)" /><path
         d="M -170.45829,146.51296 A 62.912174,62.912174 0 0 1 -81.487046,57.541706"
         fill="none"
         stroke="url(#arc1Gradient)"
         stroke-width="46.7324"
         id="path4-4"
         style="display:inline;stroke:url(#arc1Gradient-0)" /><path
         d="M -81.487046,57.541706 A 62.912174,62.912174 0 0 1 -170.45829,146.51296"
         fill="none"
         stroke="url(#arc2Gradient)"
         stroke-width="46.7324"
         id="path5-5"
         style="display:inline;stroke:url(#arc2Gradient-8)" /><path
         d="m 39.583,126.27798 c 0,3.584 0.82655,6.19256 2.381331,8.45273 2.900177,4.0254 7.716717,2.77592 9.41032,2.80066 0.937305,0.0137 4.473398,-0.64583 8.569739,-2.29026 l 8.499084,17.63907 c -6.312247,5.85502 -20.541608,7.83505 -24.596805,7.32864 -10.66913,-1.33235 -16.750013,-2.54016 -22.126013,-7.27616 -5.248,-4.864 -9.593656,-12.25468 -9.593656,-24.92668 V 88.837979 H -2.8328219 l 10e-8,-19.453551 c 0,0 9.8829521,0.242069 12.3588309,-2.51327 C 11.844938,64.290484 11.93455,62.376588 12.127,48.634171 L 39.339521,48.305151 39.583,67.862684 H 63.874974 V 88.837979 H 39.583 Z m 81.40821,-64.320001 c 9.344,0 17.664,2.24 24.96,6.72 7.424,4.48 13.184,10.56 17.28,18.24 4.096,7.680001 6.144,16.192001 6.144,25.536001 0,3.584 -0.256,5.38713 -0.768,8.33113 l -69.335648,-0.73044 c 2.431998,5.888 5.695998,10.304 9.791998,13.248 4.096,2.816 9.408,4.224 15.936,4.224 3.968,0 7.808,-0.832 11.52,-2.496 3.84,-1.664 10.98714,-6.09531 13.16314,-8.91131 l 14.40555,14.23583 c -5.69739,6.528 -10.304,11.52 -17.472,14.976 -7.04,3.456 -15.168,5.184 -24.384,5.184 -10.368,0 -19.52,-2.176 -27.455998,-6.528 -7.936,-4.48 -14.08,-10.56 -18.432,-18.24 -4.352,-7.68 -6.041042,-13.82121 -6.041042,-23.29321 0,-9.472 2.112,-18.048 6.336,-25.728001 4.352,-7.68 10.368,-13.696 18.048,-18.048 7.68,-4.48 16.448,-6.72 26.304,-6.72 z m 20.95165,42.384701 c -0.896,-4.863996 -3.456,-12.048701 -7.68,-14.736701 -4.096,-2.688 -7.44765,-4.032 -13.46365,-4.032 -6.272,0 -10.00765,1.536 -14.61565,4.608 -4.608,2.944 -7.039998,9.936701 -7.295998,14.160701 z m 95.00657,-39.898432 c 5.632,0 11.328,1.216 17.088,3.648 5.76,2.432 10.688,5.502605 14.784,11.646605 4.096,6.144 6.144,14.4 6.144,24.767997 l 0.73044,53.51234 h -27.456 l -0.73044,-53.51234 c -0.0839,-6.143425 -2.21496,-8.855645 -5.67096,-11.543645 -3.328,-2.688 -7.11652,-4.275478 -11.85252,-4.275478 -4.736,0 -11.38227,1.907478 -14.58227,5.235478 -3.072,3.328 -6.31235,5.474774 -6.31235,12.770775 l 0.97392,51.32521 h -27.456 l -0.97392,-93.565211 h 27.456 l 0.24348,9.206268 c 7.296,-6.144 19.42262,-9.215999 27.61462,-9.215999 z m 132.43751,17.673731 -43.17547,53.876871 h 46.42089 l 0.73044,22.02434 h -84.42423 l -0.97392,-14.88488 45.09462,-54.309821 h -43.27041 l 0.17217,-24.37051 79.42591,-0.344331 z m 31.15654,-27.311295 c -5.12,0 -9.152,-1.344 -12.096,-4.032 -2.816,-2.816 -4.224,-6.592 -4.224,-11.328 0,-4.864 1.408,-8.704 4.224,-11.52 2.944,-2.816 6.976,-4.224 12.096,-4.224 4.992,0 8.96,1.408 11.904,4.224 2.944,2.816 4.416,6.656 4.416,11.52 0,4.736 -1.472,8.512 -4.416,11.328 -2.944,2.688 -6.912,4.032 -11.904,4.032 z M 387.6934,158.01919 386.71948,64.453979 h 27.456 l 0.97392,93.565211 z"
         id="text7-5"
         style="font-size:192px;font-family:THICCCBOI;-inkscape-font-specification:'THICCCBOI, Normal';fill:url(#linearGradient2)"
         aria-label="tenzi"
         sodipodi:nodetypes="scsccscscccsccccccsscsscccsccccscssccsccscccssssccscscscccccscccccccccccscscssscsccccc" /></g></g></svg>
